<?xml version="1.0" encoding="UTF-8" standalone="no"?>
<!-- Created with Inkscape (http://www.inkscape.org/) -->

<svg
   width="210mm"
   height="297mm"
   viewBox="0 0 210 297"
   version="1.1"
   id="svg5"
   inkscape:version="1.2.1 (9c6d41e410, 2022-07-14)"
   sodipodi:docname="system.svg"
   xmlns:inkscape="http://www.inkscape.org/namespaces/inkscape"
   xmlns:sodipodi="http://sodipodi.sourceforge.net/DTD/sodipodi-0.dtd"
   xmlns="http://www.w3.org/2000/svg"
   xmlns:svg="http://www.w3.org/2000/svg">
  <sodipodi:namedview
     id="namedview7"
     pagecolor="#ffffff"
     bordercolor="#000000"
     borderopacity="0.25"
     inkscape:showpageshadow="2"
     inkscape:pageopacity="0.0"
     inkscape:pagecheckerboard="0"
     inkscape:deskcolor="#d1d1d1"
     inkscape:document-units="mm"
     showgrid="false"
     inkscape:zoom="0.50333193"
     inkscape:cx="84.437321"
     inkscape:cy="584.10759"
     inkscape:window-width="1366"
     inkscape:window-height="745"
     inkscape:window-x="-8"
     inkscape:window-y="-8"
     inkscape:window-maximized="1"
     inkscape:current-layer="layer1" />
  <defs
     id="defs2" />
  <g
     inkscape:label="Слой 1"
     inkscape:groupmode="layer"
     id="layer1">
    <path
       style="fill:#800080;stroke-width:0.264583"
       id="path111"
       sodipodi:type="arc"
       sodipodi:cx="72.01593"
       sodipodi:cy="89.100006"
       sodipodi:rx="14.718584"
       sodipodi:ry="13.404425"
       sodipodi:start="0"
       sodipodi:end="6.2824551"
       sodipodi:arc-type="slice"
       d="M 86.734514,89.100006 A 14.718584,13.404425 0 0 1 72.018617,102.50443 14.718584,13.404425 0 0 1 57.297347,89.1049 14.718584,13.404425 0 0 1 72.007869,75.695583 14.718584,13.404425 0 0 1 86.73451,89.090218 l -14.71858,0.0098 z" />
    <path
       style="fill:#800080;stroke-width:0.264583"
       id="path111-5"
       sodipodi:type="arc"
       sodipodi:cx="90.939819"
       sodipodi:cy="89.099998"
       sodipodi:rx="14.718584"
       sodipodi:ry="13.404425"
       sodipodi:start="0"
       sodipodi:end="6.2824551"
       sodipodi:arc-type="slice"
       d="M 105.6584,89.099998 A 14.718584,13.404425 0 0 1 90.942506,102.50442 14.718584,13.404425 0 0 1 76.221236,89.104892 14.718584,13.404425 0 0 1 90.931759,75.695576 14.718584,13.404425 0 0 1 105.6584,89.09021 l -14.718581,0.0098 z" />
    <path
       style="fill:#f9f9f9;stroke-width:0.264583"
       id="path243"
       sodipodi:type="arc"
       sodipodi:cx="72.541588"
       sodipodi:cy="91.071243"
       sodipodi:rx="2.8911505"
       sodipodi:ry="2.7597344"
       sodipodi:start="0"
       sodipodi:end="6.2824551"
       sodipodi:arc-type="slice"
       d="m 75.432738,91.071243 a 2.8911505,2.7597344 0 0 1 -2.890622,2.759735 2.8911505,2.7597344 0 0 1 -2.891678,-2.758727 2.8911505,2.7597344 0 0 1 2.889566,-2.760742 2.8911505,2.7597344 0 0 1 2.892734,2.757719 l -2.89115,0.002 z" />
    <path
       style="fill:#f9f9f9;stroke-width:0.264583"
       id="path243-6"
       sodipodi:type="arc"
       sodipodi:cx="90.416115"
       sodipodi:cy="90.694893"
       sodipodi:rx="2.8911505"
       sodipodi:ry="2.7597344"
       sodipodi:start="0"
       sodipodi:end="6.2824551"
       sodipodi:arc-type="slice"
       d="m 93.307265,90.694893 a 2.8911505,2.7597344 0 0 1 -2.890622,2.759734 2.8911505,2.7597344 0 0 1 -2.891678,-2.758727 2.8911505,2.7597344 0 0 1 2.889566,-2.760741 2.8911505,2.7597344 0 0 1 2.892734,2.757719 l -2.89115,0.002 z" />
    <path
       style="fill:#ff0000;stroke-width:0.264583"
       d="m 81.495306,99.522776 -13.009512,9.942984 26.483651,-0.3717 z"
       id="path427" />
    <path
       style="fill:#d40000;stroke-width:0.264583"
       d="m 68.671646,109.55869 13.567063,11.05808 12.730736,-11.52271 z"
       id="path429" />
    <rect
       style="fill:#000000;stroke-width:0.264583"
       id="rect537"
       width="55.983185"
       height="14.981416"
       x="58.348671"
       y="142.45486" />
    <path
       style="fill:#aa4400;stroke-width:0.264583"
       d="m 75.958405,73.067256 -7.884953,-34.430973 11.301769,2.89115 4.730972,-3.679645 8.673452,1.839823 4.205309,9.98761 z"
       id="path645" />
    <rect
       style="fill:#aa4400;stroke-width:0.264583"
       id="rect753"
       width="15.769911"
       height="7.359292"
       x="60.451328"
       y="199.22655" />
    <rect
       style="fill:#aa4400;stroke-width:0.264583"
       id="rect755"
       width="21.026548"
       height="9.9876108"
       x="93.568138"
       y="197.1239" />
    <path
       style="fill:#ffff00;stroke-width:0.264583"
       d="M 138.51239,108.28672 C 146.66017,91.99115 149.02566,89.1 162.95575,94.882299 c 13.93009,5.782301 18.66106,13.404421 18.66106,13.404421 0,0 4.99381,9.72478 -5.7823,12.61593 -10.7761,2.89115 -4.20531,12.61593 -20.50088,6.30797 -16.29558,-6.30797 -23.65487,-7.35929 -24.18053,-9.98761 -0.52567,-2.62832 7.35929,-8.93629 7.35929,-8.93629 z"
       id="path757" />
    <path
       style="fill:#0000ff;stroke-width:0.264583"
       d="m 132.46726,116.43451 c 0,-3.15398 -15.50709,-19.712388 -15.50709,-19.712388 l 4.99381,33.379648 10.77611,-16.55841 z"
       id="path813" />
    <path
       style="fill:#0000ff;stroke-width:0.264583"
       d="m 155.85929,114.59469 c 6.83363,-1.83982 12.61593,-1.31416 12.61593,-1.31416 0,0 -0.7885,5.7823 -2.89115,8.14779 -2.10266,2.36548 -10.25044,5.51947 -10.25044,5.51947 0,0 0.52566,-7.62213 -0.7885,-7.88496 -1.31416,-0.26283 1.31416,-4.46814 1.31416,-4.46814 z"
       id="path923" />
    <path
       style="fill:#008080;stroke-width:0.264583"
       id="path977"
       sodipodi:type="arc"
       sodipodi:cx="176.623"
       sodipodi:cy="106.05265"
       sodipodi:rx="5.2566371"
       sodipodi:ry="4.5995579"
       sodipodi:start="0"
       sodipodi:end="6.2824551"
       sodipodi:arc-type="slice"
       d="m 181.87964,106.05265 a 5.2566371,4.5995579 0 0 1 -5.25568,4.59956 5.2566371,4.5995579 0 0 1 -5.2576,-4.59788 5.2566371,4.5995579 0 0 1 5.25376,-4.60124 5.2566371,4.5995579 0 0 1 5.25952,4.5962 l -5.25664,0.003 z" />
    <text
       xml:space="preserve"
       style="font-size:9.87777px;text-align:center;text-anchor:middle;fill:#008080;stroke-width:0.264583"
       x="152.17964"
       y="73.592926"
       id="text1085"><tspan
         sodipodi:role="line"
         id="tspan1083"
         style="stroke-width:0.264583"
         x="152.17964"
         y="73.592926">System</tspan></text>
    <path
       style="fill:#ffd5d5;stroke-width:0.264583"
       id="path1134"
       sodipodi:type="arc"
       sodipodi:cx="179.71713"
       sodipodi:cy="106.53862"
       sodipodi:rx="1.2080262"
       sodipodi:ry="1.2544888"
       sodipodi:start="0"
       sodipodi:end="6.2824551"
       sodipodi:arc-type="slice"
       d="m 180.92516,106.53862 a 1.2080262,1.2544888 0 0 1 -1.20781,1.25449 1.2080262,1.2544888 0 0 1 -1.20824,-1.25403 1.2080262,1.2544888 0 0 1 1.20736,-1.25495 1.2080262,1.2544888 0 0 1 1.20869,1.25357 l -1.20803,9.2e-4 z" />
    <rect
       style="fill:#803300;stroke-width:0.264583"
       id="rect1240"
       width="45.347446"
       height="20.81522"
       x="144.59145"
       y="189.1955" />
    <rect
       style="fill:#d45500;stroke-width:0.264583"
       id="rect1294"
       width="32.709633"
       height="17.469917"
       x="133.81213"
       y="211.12581" />
    <rect
       style="fill:#2b1100;stroke-width:0.264583"
       id="rect1348"
       width="30.479431"
       height="17.098217"
       x="169.12367"
       y="210.7541" />
    <rect
       style="fill:#a05a2c;stroke-width:0.264583"
       id="rect1402"
       width="43.117245"
       height="21.930323"
       x="119.68752"
       y="228.59573" />
    <rect
       style="fill:#a05a2c;stroke-width:0.264583"
       id="rect1456"
       width="32.895485"
       height="19.885973"
       x="175.62842"
       y="229.71083"
       ry="0" />
    <path
       style="fill:#ff00ff;stroke-width:0.264583"
       d="m 6.8336283,257.04956 c 3.6796457,0 69.3876087,-22.60354 69.3876087,-22.60354 V 209.21416 L 5.7823009,232.86902 Z"
       id="path1512" />
    <path
       style="fill:#ff2a2a;stroke-width:0.264583"
       d="M 76.746901,236.02301 91.465486,256.52389 12.615929,284.38406 6.8336283,256.52389 Z"
       id="path1568" />
    <path
       style="fill:#008000;stroke-width:0.264583"
       d="m 34.693804,248.63894 11.038938,24.18053 16.295576,-6.30796 -12.615929,-22.07789 z"
       id="path1624" />
  </g>
</svg>
